<svg width="20" height="20" viewBox="0 0 20 20" fill="none" xmlns="http://www.w3.org/2000/svg">
<path fill-rule="evenodd" clip-rule="evenodd" d="M3.23812 19.2623C5.7063 20.4247 9.11015 19.6295 12.0052 18.3128C14.7056 17.0846 17.7753 15.0295 19.3377 12.4274C20.3294 10.7769 20.1078 9.00203 19.3282 7.44113H16.3404C14.4927 7.44113 13.5672 8.36625 13.5672 10.2168V14.5753H12.3797V10.2168C12.3797 7.57397 13.7 6.25363 16.3404 6.25363H18.6047C18.3973 5.96648 18.1742 5.69171 17.9409 5.43223C17.2517 4.66542 16.2108 3.94048 15.3137 3.25301C14.4479 2.58957 13.5086 2.06806 12.2611 1.4854C10.1106 0.480589 6.69619 -0.436521 4.23492 0.294253C2.78757 0.723692 2.21256 1.4148 1.54547 2.45127C1.40572 2.45127 0.574142 4.16139 0.28045 5.99743C-0.25089 9.32339 -0.385909 17.5555 3.23812 19.2623ZM10.5939 6.84866C10.0666 6.84866 9.80125 6.58336 9.80125 6.05602C9.80125 5.52577 10.0666 5.26301 10.5939 5.26301C11.1245 5.26301 11.3869 5.52577 11.3869 6.05602C11.3869 6.58336 11.1245 6.84866 10.5939 6.84866ZM10.0014 14.5753V9.5199L8.811 9.79831V11.8021C8.811 13.6502 7.88588 14.5753 6.03529 14.5753H3.2625C1.41191 14.5753 0.489345 13.7826 0.489345 12.197C0.489345 11.0448 0.889672 10.3846 1.69323 10.2168L2.71988 9.98319L7.61221 8.86301C7.56417 7.91533 7.03683 7.44113 6.03529 7.44113H3.2625C2.20455 7.44113 1.67685 7.97102 1.67685 9.02642H0.489345C0.489345 7.17875 1.41191 6.25327 3.2625 6.25327H6.03529C7.73522 6.25327 8.65378 7.03389 8.79244 8.59297L11.1893 8.04454V14.5753H10.0014ZM6.03529 13.3849C7.09324 13.3849 7.62058 12.8575 7.62058 11.8021V10.0978L2.00185 11.3883C1.78531 11.464 1.67685 11.5994 1.67685 11.8021C1.67685 12.8575 2.20455 13.3849 3.2625 13.3849H6.03529Z" fill="url(#paint0_linear_2177_3417)"/>
<defs>
<linearGradient id="paint0_linear_2177_3417" x1="19.0251" y1="28.2544" x2="9.10626" y2="3.28366" gradientUnits="userSpaceOnUse">
<stop stop-color="#8E04B7"/>
<stop offset="1" stop-color="#E13C52"/>
</linearGradient>
</defs>
</svg>
